Coordinates
version=1
nRows=9
nColumns=36
inDegrees=yes

Units are S.I. units (second, meters, Newtons, ...)
If the header above contains a line with 'inDegrees', this indicates whether rotational values are in degrees (yes) or radians (no).

endheader
time	pelvis_tilt	pelvis_list	pelvis_rotation	pelvis_tx	pelvis_ty	pelvis_tz	hip_flexion_r	hip_adduction_r	hip_rotation_r	knee_angle_r	knee_angle_r_beta	ankle_angle_r	subtalar_angle_r	mtp_angle_r	hip_flexion_l	hip_adduction_l	hip_rotation_l	knee_angle_l	knee_angle_l_beta	ankle_angle_l	subtalar_angle_l	mtp_angle_l	lumbar_extension	lumbar_bending	lumbar_rotation	arm_flex_r	arm_add_r	arm_rot_r	elbow_flex_r	pro_sup_r	arm_flex_l	arm_add_l	arm_rot_l	elbow_flex_l	pro_sup_l
     45.00000000	     -8.70843160	      6.72875733	      9.37168859	      0.87042473	      0.93109764	      0.74138440	     -1.89357094	     -5.07416514	      7.43820844	     16.22463212	      0.28317325	     16.47888794	      1.61008206	     -7.49999987	     42.80388009	      5.90516325	      3.87561976	     16.91658504	      0.29525011	     12.49801443	     -4.13067271	     -7.49999987	    -21.17719215	     -8.68437168	      5.98115772	      9.41460454	    -14.24599030	      9.16432858	     46.89418748	     71.08489194	      2.58403605	    -12.40864729	      3.71884342	     25.05628050	     71.53295858
     45.01666670	     -8.68763422	      6.90176459	      9.28829104	      0.87308341	      0.92918895	      0.74021169	     -3.04392188	     -5.22010249	      7.77268352	     16.70092104	      0.29148606	     17.10454213	      0.71952673	     -7.49999987	     42.70019300	      6.53486034	      3.86432837	     18.04708482	      0.31498105	     12.12680853	     -3.37672269	     -7.49999987	    -20.83720573	     -9.09992677	      6.31791938	      9.40779557	    -13.82671151	      9.43718099	     46.92368234	     71.10404856	      1.92582844	    -12.77845364	      3.65099954	     24.81087712	     71.49091955
     45.03333330	     -8.68066790	      6.83177926	      9.05270318	      0.87644959	      0.92410932	      0.73927804	     -4.15279321	     -5.11429034	      8.52731461	     17.16659478	      0.29961360	     16.33932548	     -1.16350862	     -7.49999987	     42.16089194	      6.78739971	      3.64488396	     19.24900316	      0.33595848	     11.12365108	     -2.38908291	     -7.49999987	    -20.41553113	     -9.38928761	      6.65022728	      9.48801838	    -13.36943107	     10.00742866	     46.39799071	     70.82639184	      1.19649944	    -13.16171527	      3.38506111	     24.72938119	     71.02398410
     45.05000000	     -8.70486345	      6.68162988	      8.63030229	      0.88193551	      0.91840049	      0.73601074	     -5.08113044	     -5.06396199	      9.08660988	     17.92462477	      0.31284372	     14.94135083	     -2.38204152	     -7.49999987	     41.47864990	      6.91313614	      3.68671228	     20.71085424	      0.36147260	      9.61413066	     -2.22408525	     -7.49999987	    -19.77233108	     -9.55540615	      6.87472230	      9.68351227	    -12.85238163	     10.91947661	     45.05656616	     70.60939174	      1.16605976	    -13.18876577	      3.45361034	     22.69390531	     70.69426415
     45.06666670	     -8.76834692	      6.61675981	      8.36184904	      0.88981539	      0.91582615	      0.72972712	     -5.88598851	     -5.24720103	      8.91679412	     19.01491398	      0.33187286	     12.80043004	     -2.78909973	     -7.49999987	     40.67277876	      7.23497669	      3.77570824	     22.30866131	      0.38935959	      8.25324821	     -2.26007351	     -7.49999987	    -19.18463852	     -9.78765370	      6.87697292	      8.91051934	    -12.35961687	     11.04612244	     44.70739794	     70.54735334	      0.63569564	    -13.29481539	      3.51569577	     22.28260573	     70.64785088
     45.08333330	     -8.68326873	      6.66511321	      8.07421589	      0.89747451	      0.91731897	      0.72342890	     -6.80983865	     -5.48637788	      9.08351874	     20.05001442	      0.34993877	      9.64084747	     -4.59753210	     -7.49999987	     39.63435898	      7.63757476	      3.97239118	     23.95569329	      0.41810572	      6.81965806	     -3.23174377	     -7.49999987	    -18.35312051	     -9.89534662	      6.80815928	      8.20601618	    -11.45447140	     10.54987898	     43.24122780	     70.33499225	      0.53756186	    -13.14258669	      3.84047508	     20.65129335	     70.41803504
     45.10000000	     -8.55873684	      6.89009217	      7.67268936	      0.90332449	      0.91994650	      0.71883269	     -7.62991052	     -5.97379798	      8.71884630	     21.06542858	      0.36766109	      6.97625457	     -5.34136817	     -7.49999987	     38.63306162	      8.00584879	      3.90055347	     25.71283115	      0.44877356	      6.05157688	     -4.03839761	     -7.49999987	    -17.59623827	    -10.23378851	      7.05756083	      6.86436069	    -10.63837473	      9.35061286	     42.53743468	     70.22453456	      0.41303748	    -13.05378599	      4.66625336	     20.26313945	     69.96305771
     45.11666670	     -8.25222072	      7.13480077	      7.12382453	      0.90719828	      0.92340600	      0.71581795	     -8.39038353	     -6.38029538	      8.51032537	     22.18274958	      0.38716202	      4.33398175	     -6.24129768	     -7.49999987	     37.45627876	      8.18527685	      3.80373595	     27.24264411	      0.47547384	      5.78382625	     -4.96131439	     -7.49999987	    -17.12321038	    -10.54495297	      7.13842171	      5.74968983	     -9.82421191	      8.42711706	     41.70140740	     70.11836773	      0.14495294	    -13.04324558	      5.04709009	     20.74135231	     69.47528647
     45.13333330	     -7.86349030	      7.21942053	      6.82422632	      0.90990038	      0.92727955	      0.71325557	     -8.64031345	     -6.47108409	      8.18306487	     24.16235984	      0.42171273	      1.42876206	     -7.08602429	     -7.49999987	     36.01624745	      8.32960026	      4.18548699	     28.22442084	      0.49260907	      5.95109062	     -5.84705196	     -7.49999987	    -16.85688668	    -10.66656473	      7.13884111	      4.59694931	     -9.07328567	      7.47118977	     40.80948824	     69.98875949	      0.11492090	    -13.15572638	      5.50497033	     21.53151247	     68.83800795
